<svg width="47" height="47" viewBox="0 0 47 47" fill="none" xmlns="http://www.w3.org/2000/svg">
<path d="M22.2402 20.1062C20.2657 20.6724 19.4545 21.5866 18.6811 24.2415L18.4868 24.9416L18.191 26.1402C18.1566 26.2869 18.1226 26.4337 18.089 26.5806C17.9162 27.3328 17.5579 27.952 16.8751 28.7775L16.2089 29.5594C15.0717 30.9005 14.5463 31.8461 14.494 33.2161C14.4535 33.7749 14.5667 34.5762 14.7543 35.2136C15.4779 37.7372 17.8306 39.1785 20.2271 38.4913L20.5865 38.3785C20.7619 38.3185 20.9292 38.2527 21.1015 38.1758L21.454 38.0051L21.6395 37.9066L22.0434 37.6726L22.2665 37.5358L23.0462 37.037L24.0834 36.3462L24.7057 35.9476C25.4341 35.4959 26.0166 35.2123 26.5297 35.0652C27.0442 34.9176 27.6874 34.8514 28.5441 34.8469L29.2831 34.8552L30.5298 34.8895L31.4543 34.9012L31.957 34.8931C32.1124 34.8873 32.2561 34.8802 32.392 34.8687L32.7814 34.8266C32.9682 34.8006 33.145 34.7677 33.3256 34.7257L33.6901 34.6308C36.0866 33.9437 37.318 31.4747 36.5918 28.9421C36.4087 28.3034 36.0798 27.5688 35.722 27.0773C35.0584 26.0955 34.1847 25.5382 32.7231 24.9746L32.2571 24.8006L31.3043 24.4587C30.1423 24.031 29.4496 23.6533 28.8818 23.0844L28.2698 22.4747L27.7076 21.9365C25.4677 19.8332 24.3869 19.4907 22.2402 20.1062Z" fill="#CC5F00"/>
<path d="M32.5915 12.2814L32.5466 12.2942C30.7317 12.847 29.4885 14.8969 29.2706 17.2873C28.9998 20.2385 30.3457 23.0013 32.7373 23.3079C33.167 23.3612 33.5955 23.3257 34.0054 23.2082C35.8469 22.6802 37.114 20.6121 37.3338 18.2001C37.599 15.2521 36.2467 12.4895 33.866 12.1814C33.4393 12.1284 33.0048 12.1627 32.5915 12.2814Z" fill="#CC5F00"/>
<path d="M14.7873 10.9111C14.6198 10.9591 14.5115 10.9934 14.3899 11.0493L14.2576 11.1131C12.0543 12.0784 11.5251 15.1167 12.7579 17.784C13.9047 20.2478 16.2806 21.8151 18.4616 21.1897L18.7392 21.1021C18.7802 21.0864 18.8207 21.0694 18.8605 21.0511L18.9913 20.9877C21.1962 20.0219 21.7238 16.9842 20.4911 14.3168C19.3464 11.8492 16.9714 10.2848 14.7873 10.9111Z" fill="#CC5F00"/>
<path d="M23.6835 8.36017C21.501 8.98599 20.3192 11.5719 20.6567 14.2677C21.0238 17.1849 23.081 19.4815 25.5675 19.1198C25.7272 19.0951 25.8753 19.0639 26.0189 19.0227C28.0982 18.4265 29.2804 16.0396 29.086 13.476L29.0486 13.1144C28.6816 10.1971 26.6244 7.90057 24.1378 8.26226C23.9843 8.28435 23.8325 8.31706 23.6835 8.36017Z" fill="#CC5F00"/>
<path d="M9.31092 18.957C8.90104 19.0745 8.52032 19.2711 8.18775 19.5397C6.3184 21.0713 6.64345 24.1301 8.43464 26.4868C9.89922 28.4159 12.0667 29.499 13.9081 28.971C14.318 28.8535 14.6987 28.6569 15.0313 28.3883C16.9007 26.8567 16.5756 23.7979 14.7844 21.4412C13.3198 19.5122 11.1524 18.429 9.31092 18.957Z" fill="#CC5F00"/>
</svg>
