<svg width="35" height="35" viewBox="0 0 35 35" fill="none" xmlns="http://www.w3.org/2000/svg">
<path d="M17.9599 15.0737C16.4796 14.6492 15.6007 14.9081 14.0542 16.2888L13.6525 16.6567L12.9883 17.3013C12.9082 17.3809 12.8282 17.4607 12.7485 17.5408C12.3398 17.9503 11.866 18.2016 11.1039 18.4552L10.3697 18.6877C9.11391 19.0886 8.40426 19.481 7.82669 20.3312C7.57893 20.6704 7.33258 21.2248 7.19863 21.7047C6.65613 23.5966 7.57935 25.4476 9.37595 25.9628L9.64927 26.0338C9.78466 26.0654 9.91716 26.09 10.0572 26.1096L10.3492 26.1411L10.5062 26.1521L10.856 26.1638L11.0522 26.1655L11.7461 26.1581L12.6799 26.131L13.2339 26.1248C13.8765 26.127 14.3595 26.1781 14.7441 26.2884C15.1299 26.399 15.5651 26.6124 16.1116 26.9499L16.5781 27.2488L17.3571 27.7659L17.9403 28.1406L18.2631 28.3351C18.3642 28.3932 18.4584 28.4457 18.5494 28.4925L18.8137 28.6204C18.9428 28.6781 19.0682 28.7274 19.1997 28.7724L19.4692 28.8569C21.2658 29.3721 23.0296 28.2916 23.574 26.3929C23.7114 25.9141 23.7941 25.3164 23.7619 24.8617C23.73 23.9739 23.3959 23.2725 22.6906 22.3335L22.4635 22.0378L21.9935 21.4418C21.4247 20.7083 21.1343 20.193 20.9993 19.6057L20.8525 18.9749L20.7088 18.4094C20.1204 16.1823 19.5692 15.5351 17.9599 15.0737Z" fill="black"/>
<path d="M27.6496 14.2111L27.616 14.2014C26.2425 13.8319 24.6377 14.6412 23.5495 16.0745C22.2049 17.8432 21.963 20.1344 23.3617 21.2795C23.6138 21.4841 23.9003 21.6318 24.2076 21.7199C25.5881 22.1157 27.2153 21.3043 28.3133 19.8581C29.6531 18.0892 29.8909 15.7956 28.4997 14.6539C28.2494 14.4507 27.9595 14.2999 27.6496 14.2111Z" fill="black"/>
<path d="M16.8745 6.26666C16.7489 6.23065 16.6664 6.20941 16.5669 6.19666L16.4575 6.18469C14.6731 5.92306 13.1297 7.64448 12.8537 9.83009C12.604 11.8521 13.4919 13.7925 15.127 14.2614L15.3384 14.3159C15.3706 14.3222 15.4031 14.3275 15.4358 14.3317L15.5441 14.3433C17.3296 14.6053 18.8719 12.8835 19.1478 10.6979C19.4004 8.67432 18.5119 6.73616 16.8745 6.26666Z" fill="black"/>
<path d="M23.5439 8.17909C21.9077 7.70991 20.129 8.88448 19.2726 10.7325C18.347 12.733 18.7426 15.0105 20.4672 15.7684C20.5785 15.8161 20.685 15.8551 20.7927 15.886C22.3515 16.333 24.0514 15.2851 24.9463 13.5779L25.0662 13.3332C25.9918 11.3327 25.5962 9.05523 23.8717 8.29735C23.7653 8.25039 23.6558 8.21088 23.5439 8.17909Z" fill="black"/>
<path d="M10.1962 9.20641C9.88887 9.1183 9.5687 9.09204 9.25056 9.13067C7.45357 9.36181 6.44504 11.4357 6.64758 13.6456C6.81236 15.4539 7.76007 17.0037 9.1406 17.3995C9.44788 17.4876 9.76805 17.5139 10.0862 17.4753C11.8832 17.2441 12.8917 15.1703 12.6892 12.9603C12.5244 11.152 11.5767 9.60227 10.1962 9.20641Z" fill="black"/>
</svg>
